<svg width="604" height="143" viewBox="0 0 604 143" fill="none" xmlns="http://www.w3.org/2000/svg">
<path d="M68.5668 141H66.5668V143H68.5668V141ZM112.778 141V143H114.778V141H112.778ZM112.778 39.8669V37.8669H110.778V39.8669H112.778ZM178.542 39.8669V41.8669H180.542V39.8669H178.542ZM178.542 2.84007H180.542V0.840073H178.542V2.84007ZM2.5264 2.84007V0.840073H0.526397V2.84007H2.5264ZM2.5264 39.8669H0.526397V41.8669H2.5264V39.8669ZM68.5668 39.8669H70.5668V37.8669H68.5668V39.8669ZM68.5668 143H112.778V139H68.5668V143ZM114.778 141V39.8669H110.778V141H114.778ZM112.778 41.8669H178.542V37.8669H112.778V41.8669ZM180.542 39.8669V2.84007H176.542V39.8669H180.542ZM178.542 0.840073H2.5264V4.84007H178.542V0.840073ZM0.526397 2.84007V39.8669H4.5264V2.84007H0.526397ZM2.5264 41.8669H68.5668V37.8669H2.5264V41.8669ZM66.5668 39.8669V141H70.5668V39.8669H66.5668ZM217.225 141H215.225V143H217.225V141ZM261.436 141V143H263.436V141H261.436ZM261.436 90.4335V88.4335H259.436V90.4335H261.436ZM349.306 90.4335H351.306V88.4335H349.306V90.4335ZM349.306 141H347.306V143H349.306V141ZM393.517 141V143H395.517V141H393.517ZM393.517 2.84007H395.517V0.840073H393.517V2.84007ZM349.306 2.84007V0.840073H347.306V2.84007H349.306ZM349.306 53.4066V55.4066H351.306V53.4066H349.306ZM261.436 53.4066H259.436V55.4066H261.436V53.4066ZM261.436 2.84007H263.436V0.840073H261.436V2.84007ZM217.225 2.84007V0.840073H215.225V2.84007H217.225ZM217.225 143H261.436V139H217.225V143ZM263.436 141V90.4335H259.436V141H263.436ZM261.436 92.4335H349.306V88.4335H261.436V92.4335ZM347.306 90.4335V141H351.306V90.4335H347.306ZM349.306 143H393.517V139H349.306V143ZM395.517 141V2.84007H391.517V141H395.517ZM393.517 0.840073H349.306V4.84007H393.517V0.840073ZM347.306 2.84007V53.4066H351.306V2.84007H347.306ZM349.306 51.4066H261.436V55.4066H349.306V51.4066ZM263.436 53.4066V2.84007H259.436V53.4066H263.436ZM261.436 0.840073H217.225V4.84007H261.436V0.840073ZM215.225 2.84007V141H219.225V2.84007H215.225ZM456.455 141L455.041 142.414L455.627 143H456.455V141ZM601.523 141V143H603.523V141H601.523ZM601.523 106.46H603.523V104.46H601.523V106.46ZM484.64 106.46H482.64V108.46H484.64V106.46ZM484.64 85.4597V83.4597H482.64V85.4597H484.64ZM593.786 85.4597V87.4597H595.786V85.4597H593.786ZM593.786 56.7224H595.786V54.7224H593.786V56.7224ZM484.64 56.7224H482.64V58.7224H484.64V56.7224ZM484.64 37.38V35.38H482.64V37.38H484.64ZM601.523 37.38V39.38H603.523V37.38H601.523ZM601.523 2.84007H603.523V0.840073H601.523V2.84007ZM440.429 2.84007V0.840073H438.429V2.84007H440.429ZM440.429 124.973H438.429V125.802L439.014 126.388L440.429 124.973ZM456.455 143H601.523V139H456.455V143ZM603.523 141V106.46H599.523V141H603.523ZM601.523 104.46H484.64V108.46H601.523V104.46ZM486.64 106.46V85.4597H482.64V106.46H486.64ZM484.64 87.4597H593.786V83.4597H484.64V87.4597ZM595.786 85.4597V56.7224H591.786V85.4597H595.786ZM593.786 54.7224H484.64V58.7224H593.786V54.7224ZM486.64 56.7224V37.38H482.64V56.7224H486.64ZM484.64 39.38H601.523V35.38H484.64V39.38ZM603.523 37.38V2.84007H599.523V37.38H603.523ZM601.523 0.840073H440.429V4.84007H601.523V0.840073ZM438.429 2.84007V124.973H442.429V2.84007H438.429ZM439.014 126.388L455.041 142.414L457.869 139.586L441.843 123.559L439.014 126.388Z" fill="#E0853B"/>
</svg>
