<svg width="1281" height="139" viewBox="0 0 1281 139" fill="none" xmlns="http://www.w3.org/2000/svg">
<path d="M16.0793 139H169.99V101.973H44.264V37.8669H128.265V62.1831H169.99V0.840073H16.0793L0.052795 16.8666V122.973L16.0793 139ZM217.05 139H261.261V88.4335H349.131V139H393.342V0.840073H349.131V51.4066H261.261V0.840073H217.05V139ZM432.029 139H475.135L487.017 116.894H576.545L588.426 139H631.532V122.697L558.031 0.840073H505.53L432.029 122.697V139ZM506.912 80.1439L531.781 34.2748L556.649 80.1439H506.912ZM670.204 139H714.415V87.3282H731.271L787.64 139H834.891V123.802L789.85 87.3282H825.496L841.522 71.3016V16.8666L825.496 0.840073H670.204V139ZM714.415 54.7224V37.8669H797.311V54.7224H714.415ZM904.577 139H1048.82L1064.84 122.973V16.8666L1048.82 0.840073H904.577L888.551 16.8666V122.973L904.577 139ZM932.762 101.973V37.8669H1020.63V101.973H932.762ZM1111.75 139H1155.97V51.4066L1223.39 139H1280.03V0.840073H1235.82V89.8151L1165.91 0.840073H1111.75V139Z" fill="#E0853B"/>
</svg>
