<svg width="21" height="21" viewBox="0 0 21 21" fill="none" xmlns="http://www.w3.org/2000/svg">
<path d="M20.4182 10.3066C20.4182 8.53917 18.8833 7.05082 13.9532 6.53921C13.4416 1.60907 11.9533 0.0742188 10.1858 0.0742188C8.41844 0.0742188 6.97661 1.60907 6.46499 6.53921C1.53485 7.05082 0 8.53917 0 10.3066C0 12.074 1.53485 13.5623 6.46499 14.0739C6.97661 19.0041 8.41844 20.5389 10.1858 20.5389C11.9533 20.5389 13.4416 19.0041 13.9532 14.0739C18.8833 13.5623 20.4182 12.074 20.4182 10.3066ZM17.3485 5.00435C18.3717 5.00435 19.2089 4.16716 19.2089 3.14393C19.2089 2.12069 18.3717 1.2835 17.3485 1.2835C16.3253 1.2835 15.4881 2.12069 15.4881 3.14393C15.4881 4.16716 16.3253 5.00435 17.3485 5.00435ZM8.83703 2.86486C9.06959 2.35324 9.30214 1.98116 9.5812 1.79511C9.76725 1.65558 9.95329 1.60907 10.1858 1.60907C10.4649 1.60907 10.651 1.65558 10.837 1.79511C11.0695 1.98116 11.3486 2.35324 11.5812 2.86486C11.9533 3.70205 12.2323 4.91133 12.3718 6.44619C11.7207 6.39967 10.9765 6.39967 10.1858 6.39967C9.39516 6.39967 8.65099 6.39967 7.99984 6.44619C8.13937 4.91133 8.41844 3.70205 8.83703 2.86486ZM12.5579 10.3066C12.5579 11.1438 12.5579 11.8879 12.5114 12.6321C11.7672 12.6786 11.023 12.6786 10.1858 12.6786C9.34865 12.6786 8.60448 12.6786 7.86031 12.6321C7.8138 11.8879 7.8138 11.1438 7.8138 10.3066C7.8138 9.46938 7.8138 8.72521 7.86031 7.98104C8.60448 7.93453 9.34865 7.93453 10.1858 7.93453C11.023 7.93453 11.7672 7.93453 12.5114 7.98104C12.5579 8.72521 12.5579 9.46938 12.5579 10.3066ZM2.74413 11.7019C2.23251 11.4693 1.86043 11.1903 1.67439 10.9112C1.53485 10.7717 1.48834 10.5391 1.48834 10.3066C1.48834 10.074 1.53485 9.84147 1.67439 9.70193C1.86043 9.42287 2.23251 9.14381 2.74413 8.91125C3.62783 8.53917 4.83711 8.2601 6.37197 8.12057C6.32546 8.77172 6.32546 9.51589 6.32546 10.3066C6.32546 11.0973 6.32546 11.8414 6.37197 12.4926C4.83711 12.353 3.62783 12.074 2.74413 11.7019ZM18.6973 10.9112C18.5113 11.1903 18.1392 11.4693 17.6741 11.7019C16.7904 12.074 15.5811 12.353 14.0462 12.4926C14.0927 11.8414 14.0927 11.0973 14.0927 10.3066C14.0927 9.51589 14.0927 8.77172 14.0462 8.12057C15.5811 8.2601 16.7904 8.53917 17.6741 8.91125C18.1392 9.14381 18.5113 9.42287 18.6973 9.70193C18.8368 9.84147 18.8833 10.074 18.8833 10.3066C18.8833 10.5391 18.8368 10.7717 18.6973 10.9112ZM11.5812 17.7483C11.3486 18.2599 11.0695 18.632 10.837 18.818C10.651 18.9576 10.4649 19.0041 10.1858 19.0041C9.95329 19.0041 9.76725 18.9576 9.5812 18.818C9.30214 18.632 9.06959 18.2599 8.83703 17.7483C8.41844 16.9111 8.13937 15.7018 7.99984 14.167C8.65099 14.2135 9.39516 14.2135 10.1858 14.2135C10.9765 14.2135 11.7207 14.2135 12.3718 14.167C12.2323 15.7018 11.9533 16.9111 11.5812 17.7483Z" fill="#E0853B"/>
</svg>
