<svg width="24" height="22" viewBox="0 0 24 22" fill="none" xmlns="http://www.w3.org/2000/svg">
<path d="M7.80198 21.2638L8.68568 18.9383C11.2903 19.729 14.0809 19.3569 16.4065 17.8685L17.8483 19.8685C23.3366 16.2407 24.9644 8.93849 21.4296 3.40372L21.011 2.75257L17.8948 4.75253C16.453 2.8921 14.36 1.72933 12.081 1.54329V0.2875C4.49972 -0.224118 -0.66297 7.77572 2.96486 14.4268L0.964905 15.7756C1.19746 16.1476 1.47652 16.6128 1.75559 16.9848C3.24393 19.0313 5.38342 20.4731 7.80198 21.2638ZM4.26716 13.5896C2.31372 10.0082 3.42997 5.40368 6.91827 3.12465C7.98802 2.38048 9.24381 1.96189 10.5926 1.82235V9.4036L4.26716 13.5896ZM12.081 8.42687V3.03163C13.8484 3.26419 15.4762 4.14789 16.5925 5.54321L12.081 8.42687ZM18.1739 17.729L12.4065 10.0082L20.5459 4.84555C22.1738 7.82223 22.2203 11.5896 20.6389 14.5663C20.0343 15.7756 19.1971 16.8453 18.1739 17.729ZM9.1973 17.543L11.5228 11.357L15.4762 16.6593C13.6158 17.822 11.3368 18.1476 9.1973 17.543ZM6.91827 19.3104C5.38342 18.5662 4.08112 17.543 3.05789 16.1942L9.80194 11.7291L6.91827 19.3104Z" fill="#E0853B"/>
</svg>
