<svg width="22" height="23" viewBox="0 0 22 23" fill="none" xmlns="http://www.w3.org/2000/svg">
<path d="M21.1159 2.39984L20.1391 0.958008L15.8136 4.02771C14.3253 3.00448 12.5114 2.39984 10.5579 2.39984C5.39524 2.39984 1.20928 6.5858 1.20928 11.7485C1.20928 14.3066 2.23251 16.6321 3.9069 18.353L0 21.0971L1.02324 22.539L5.30222 19.4693C6.79056 20.4925 8.60448 21.0971 10.5579 21.0971C15.7206 21.0971 19.9066 16.9112 19.9066 11.7485C19.9066 9.1904 18.8833 6.86487 17.209 5.14397L21.1159 2.39984ZM18.1857 11.7485C18.1857 15.9345 14.7439 19.3762 10.5579 19.3762C9.20912 19.3762 7.95333 19.0042 6.83707 18.3995L12.0928 14.6787L11.1161 13.2833L5.39524 17.3298C3.9069 15.9345 2.97668 13.9345 2.97668 11.7485C2.97668 7.56253 6.37197 4.12073 10.5579 4.12073C11.9067 4.12073 13.1625 4.49282 14.2788 5.09746L9.02308 8.81832L9.9998 10.2136L15.7671 6.16721C17.2555 7.56253 18.1857 9.56249 18.1857 11.7485Z" fill="#E0853B"/>
</svg>
