<svg width="630" height="426" viewBox="0 0 630 426" fill="none" xmlns="http://www.w3.org/2000/svg">
<g clip-path="url(#clip0)">
<path d="M328.25 254.722C328.36 252.03 328.418 248.917 328.418 245.327C328.418 206.483 319.191 126.441 316.544 126.441C313.898 126.441 304.671 206.483 304.671 245.327C304.671 249.036 304.733 252.236 304.85 254.989L295.747 263.327V283.292L308.221 271.634L308.65 276.637H323.986L324.47 270.979L337.645 283.292V263.327L328.25 254.722Z" fill="#000F08" stroke="#842F9E" stroke-width="2"/>
<path d="M9.14834 426.124H-0.293335V416.683H1.79965V424.031H9.14834V426.124Z" fill="#AAB9CF"/>
<path d="M630.321 416.682L630.321 426.124L620.879 426.124L620.879 424.031L628.228 424.031L628.228 416.682L630.321 416.682Z" fill="#AAB9CF"/>
<path d="M325.924 1.1336L324.668 -0.0756836L321.227 3.36611C319.599 2.0173 317.506 1.22662 315.227 1.22662C310.064 1.22662 305.878 5.41258 305.878 10.5753C305.878 12.8543 306.669 14.9473 308.018 16.5751L304.576 20.0169L305.785 21.2262L309.273 17.7844C310.855 19.1332 312.948 19.9239 315.227 19.9239C320.389 19.9239 324.575 15.738 324.575 10.5753C324.575 8.29624 323.785 6.24977 322.436 4.6219L325.924 1.1336ZM307.646 10.5753C307.646 6.3893 311.041 2.94751 315.227 2.94751C316.994 2.94751 318.669 3.55215 319.971 4.6219L309.273 15.3194C308.25 14.0171 307.646 12.3427 307.646 10.5753ZM322.855 10.5753C322.855 14.7612 319.413 18.203 315.227 18.203C313.459 18.203 311.785 17.5519 310.483 16.5286L321.18 5.83118C322.25 7.13348 322.855 8.80786 322.855 10.5753Z" fill="#AAB9CF"/>
<path d="M241.594 268.104C235.048 267.596 234.803 267.627 234.518 267.626C233.605 267.739 232.903 268.111 232.428 269.167C231.954 270.223 229.521 275.903 229.521 275.903C228.998 277.143 229.316 278.565 230.319 279.474L230.836 279.908L225.784 290.9C225.366 291.842 225.759 293.004 226.737 293.418C227.074 293.554 227.438 293.616 227.754 293.577C228.385 293.499 228.978 293.105 229.255 292.465L233.832 282.53L235.387 283.869L234.108 290.226C233.913 291.247 234.574 292.27 235.596 292.464C235.815 292.508 235.995 292.522 236.205 292.496C237.012 292.396 237.688 291.813 237.834 290.976L239.206 284.216C239.427 283.12 239.038 281.993 238.201 281.277L235.486 278.906L239.021 271.201C239.705 271.259 240.459 271.308 241.323 271.38C242.222 271.446 243.099 271.338 243.959 271.089C243.959 271.089 245.048 271.034 246.806 270.203C248.563 269.371 247.887 266.554 246.393 266.869C244.899 267.185 242.967 267.97 242.967 267.97C242.485 268.101 242.028 268.157 241.594 268.104Z" fill="#842F9E"/>
<path d="M240.99 263.102C240.96 261.072 239.29 259.45 237.259 259.48C235.229 259.509 233.607 261.18 233.637 263.21C233.667 265.24 235.337 266.862 237.367 266.832C239.398 266.802 241.019 265.132 240.99 263.102Z" fill="#842F9E"/>
<circle cx="262.49" cy="273.282" r="13.981" stroke="#842F9E" stroke-width="2"/>
<path fill-rule="evenodd" clip-rule="evenodd" d="M517.389 861.615C458.917 892.118 389.516 909.801 315 909.801C240.484 909.801 171.083 892.118 112.611 861.615H108.346C167.83 893.362 238.795 911.801 315 911.801C391.205 911.801 462.17 893.362 521.654 861.615H517.389ZM18.5416 406.875C87.7136 335.153 194.69 289.056 315 289.056C435.31 289.056 542.286 335.153 611.458 406.875H614.239C544.677 333.928 436.497 287.056 315 287.056C193.503 287.056 85.3232 333.928 15.7614 406.875H18.5416Z" fill="#AAB9CF"/>
</g>
<defs>
<clipPath id="clip0">
<rect width="630" height="426" fill="white"/>
</clipPath>
</defs>
</svg>
