<svg width="1074" height="143" viewBox="0 0 1074 143" fill="none" xmlns="http://www.w3.org/2000/svg">
<path d="M2.05279 141H0.052795V143H2.05279V141ZM162.318 141V143H163.147L163.733 142.414L162.318 141ZM178.345 124.973L179.759 126.388L180.345 125.802V124.973H178.345ZM178.345 87.1176H180.345V86.2994L179.771 85.7158L178.345 87.1176ZM162.595 71.0911L161.163 69.6949L159.796 71.0966L161.168 72.4929L162.595 71.0911ZM173.371 60.0383L174.803 61.4345L175.371 60.8519V60.0383H173.371ZM173.371 18.8666H175.371V18.0382L174.785 17.4524L173.371 18.8666ZM157.345 2.84007L158.759 1.42586L158.173 0.840073H157.345V2.84007ZM2.05279 2.84007V0.840073H0.052795V2.84007H2.05279ZM46.264 56.7224H44.264V58.7224H46.264V56.7224ZM46.264 37.38V35.38H44.264V37.38H46.264ZM129.16 37.38H131.16V35.38H129.16V37.38ZM129.16 56.7224V58.7224H131.16V56.7224H129.16ZM46.264 106.46H44.264V108.46H46.264V106.46ZM46.264 85.4597V83.4597H44.264V85.4597H46.264ZM134.134 85.4597H136.134V83.4597H134.134V85.4597ZM134.134 106.46V108.46H136.134V106.46H134.134ZM2.05279 143H162.318V139H2.05279V143ZM163.733 142.414L179.759 126.388L176.931 123.559L160.904 139.586L163.733 142.414ZM180.345 124.973V87.1176H176.345V124.973H180.345ZM179.771 85.7158L164.021 69.6892L161.168 72.4929L176.918 88.5195L179.771 85.7158ZM164.027 72.4873L174.803 61.4345L171.939 58.6421L161.163 69.6949L164.027 72.4873ZM175.371 60.0383V18.8666H171.371V60.0383H175.371ZM174.785 17.4524L158.759 1.42586L155.93 4.25429L171.957 20.2808L174.785 17.4524ZM157.345 0.840073H2.05279V4.84007H157.345V0.840073ZM0.052795 2.84007V141H4.05279V2.84007H0.052795ZM48.264 56.7224V37.38H44.264V56.7224H48.264ZM46.264 39.38H129.16V35.38H46.264V39.38ZM127.16 37.38V56.7224H131.16V37.38H127.16ZM129.16 54.7224H46.264V58.7224H129.16V54.7224ZM48.264 106.46V85.4597H44.264V106.46H48.264ZM46.264 87.4597H134.134V83.4597H46.264V87.4597ZM132.134 85.4597V106.46H136.134V85.4597H132.134ZM134.134 104.46H46.264V108.46H134.134V104.46ZM239.934 141L238.52 142.414L239.106 143H239.934V141ZM384.173 141V143H385.001L385.587 142.414L384.173 141ZM400.2 124.973L401.614 126.388L402.2 125.802V124.973H400.2ZM400.2 18.8666H402.2V18.0382L401.614 17.4524L400.2 18.8666ZM384.173 2.84007L385.587 1.42586L385.001 0.840073H384.173V2.84007ZM239.934 2.84007V0.840073H239.106L238.52 1.42586L239.934 2.84007ZM223.907 18.8666L222.493 17.4524L221.907 18.0382V18.8666H223.907ZM223.907 124.973H221.907V125.802L222.493 126.388L223.907 124.973ZM268.119 103.973H266.119V105.973H268.119V103.973ZM268.119 39.8669V37.8669H266.119V39.8669H268.119ZM355.988 39.8669H357.988V37.8669H355.988V39.8669ZM355.988 103.973V105.973H357.988V103.973H355.988ZM239.934 143H384.173V139H239.934V143ZM385.587 142.414L401.614 126.388L398.785 123.559L382.759 139.586L385.587 142.414ZM402.2 124.973V18.8666H398.2V124.973H402.2ZM401.614 17.4524L385.587 1.42586L382.759 4.25429L398.785 20.2808L401.614 17.4524ZM384.173 0.840073H239.934V4.84007H384.173V0.840073ZM238.52 1.42586L222.493 17.4524L225.322 20.2808L241.348 4.25429L238.52 1.42586ZM221.907 18.8666V124.973H225.907V18.8666H221.907ZM222.493 126.388L238.52 142.414L241.348 139.586L225.322 123.559L222.493 126.388ZM270.119 103.973V39.8669H266.119V103.973H270.119ZM268.119 41.8669H355.988V37.8669H268.119V41.8669ZM353.988 39.8669V103.973H357.988V39.8669H353.988ZM355.988 101.973H268.119V105.973H355.988V101.973ZM438.886 141H436.886V143H438.886V141ZM481.992 141V143H483.188L483.754 141.947L481.992 141ZM493.874 118.894V116.894H492.678L492.112 117.948L493.874 118.894ZM583.402 118.894L585.163 117.948L584.597 116.894H583.402V118.894ZM595.283 141L593.522 141.947L594.088 143H595.283V141ZM638.389 141V143H640.389V141H638.389ZM638.389 124.697H640.389V124.141L640.102 123.664L638.389 124.697ZM564.888 2.84007L566.601 1.80709L566.018 0.840073H564.888V2.84007ZM512.387 2.84007V0.840073H511.258L510.675 1.80709L512.387 2.84007ZM438.886 124.697L437.174 123.664L436.886 124.141V124.697H438.886ZM513.769 82.1439L512.011 81.1906L510.41 84.1439H513.769V82.1439ZM538.638 36.2748L540.396 35.3215L538.638 32.0786L536.88 35.3215L538.638 36.2748ZM563.507 82.1439V84.1439H566.866L565.265 81.1906L563.507 82.1439ZM438.886 143H481.992V139H438.886V143ZM483.754 141.947L495.636 119.841L492.112 117.948L480.231 140.053L483.754 141.947ZM493.874 120.894H583.402V116.894H493.874V120.894ZM581.64 119.841L593.522 141.947L597.045 140.053L585.163 117.948L581.64 119.841ZM595.283 143H638.389V139H595.283V143ZM640.389 141V124.697H636.389V141H640.389ZM640.102 123.664L566.601 1.80709L563.176 3.87306L636.677 125.73L640.102 123.664ZM564.888 0.840073H512.387V4.84007H564.888V0.840073ZM510.675 1.80709L437.174 123.664L440.599 125.73L514.1 3.87306L510.675 1.80709ZM436.886 124.697V141H440.886V124.697H436.886ZM515.527 83.0971L540.396 37.228L536.88 35.3215L512.011 81.1906L515.527 83.0971ZM536.88 37.228L561.748 83.0971L565.265 81.1906L540.396 35.3215L536.88 37.228ZM563.507 80.1439H513.769V84.1439H563.507V80.1439ZM677.061 141H675.061V143H677.061V141ZM721.272 141V143H723.272V141H721.272ZM721.272 89.3282V87.3282H719.272V89.3282H721.272ZM738.128 89.3282L739.479 87.8539L738.906 87.3282H738.128V89.3282ZM794.497 141L793.146 142.474L793.719 143H794.497V141ZM841.748 141V143H843.748V141H841.748ZM841.748 125.802H843.748V124.848L843.006 124.248L841.748 125.802ZM796.708 89.3282V87.3282H791.06L795.449 90.8825L796.708 89.3282ZM832.353 89.3282V91.3282H833.181L833.767 90.7424L832.353 89.3282ZM848.379 73.3016L849.794 74.7158L850.379 74.1301V73.3016H848.379ZM848.379 18.8666H850.379V18.0382L849.794 17.4524L848.379 18.8666ZM832.353 2.84007L833.767 1.42586L833.181 0.840073H832.353V2.84007ZM677.061 2.84007V0.840073H675.061V2.84007H677.061ZM721.272 56.7224H719.272V58.7224H721.272V56.7224ZM721.272 39.8669V37.8669H719.272V39.8669H721.272ZM804.168 39.8669H806.168V37.8669H804.168V39.8669ZM804.168 56.7224V58.7224H806.168V56.7224H804.168ZM677.061 143H721.272V139H677.061V143ZM723.272 141V89.3282H719.272V141H723.272ZM721.272 91.3282H738.128V87.3282H721.272V91.3282ZM736.776 90.8025L793.146 142.474L795.849 139.526L739.479 87.8539L736.776 90.8025ZM794.497 143H841.748V139H794.497V143ZM843.748 141V125.802H839.748V141H843.748ZM843.006 124.248L797.966 87.7739L795.449 90.8825L840.489 127.357L843.006 124.248ZM796.708 91.3282H832.353V87.3282H796.708V91.3282ZM833.767 90.7424L849.794 74.7158L846.965 71.8874L830.939 87.914L833.767 90.7424ZM850.379 73.3016V18.8666H846.379V73.3016H850.379ZM849.794 17.4524L833.767 1.42586L830.939 4.25429L846.965 20.2808L849.794 17.4524ZM832.353 0.840073H677.061V4.84007H832.353V0.840073ZM675.061 2.84007V141H679.061V2.84007H675.061ZM723.272 56.7224V39.8669H719.272V56.7224H723.272ZM721.272 41.8669H804.168V37.8669H721.272V41.8669ZM802.168 39.8669V56.7224H806.168V39.8669H802.168ZM804.168 54.7224H721.272V58.7224H804.168V54.7224ZM895.408 141H893.408V143H895.408V141ZM1055.67 141V143H1056.5L1057.09 142.414L1055.67 141ZM1071.7 124.973L1073.11 126.388L1073.7 125.802V124.973H1071.7ZM1071.7 59.4856H1073.7V58.6572L1073.11 58.0714L1071.7 59.4856ZM1015.05 2.84007L1016.47 1.42586L1015.88 0.840073H1015.05V2.84007ZM895.408 2.84007V0.840073H893.408V2.84007H895.408ZM939.619 103.973H937.619V105.973H939.619V103.973ZM939.619 39.8669V37.8669H937.619V39.8669H939.619ZM994.607 39.8669L996.021 38.4527L995.435 37.8669H994.607V39.8669ZM1027.49 72.749H1029.49V71.9206L1028.9 71.3348L1027.49 72.749ZM1027.49 103.973V105.973H1029.49V103.973H1027.49ZM895.408 143H1055.67V139H895.408V143ZM1057.09 142.414L1073.11 126.388L1070.29 123.559L1054.26 139.586L1057.09 142.414ZM1073.7 124.973V59.4856H1069.7V124.973H1073.7ZM1073.11 58.0714L1016.47 1.42586L1013.64 4.25429L1070.29 60.8999L1073.11 58.0714ZM1015.05 0.840073H895.408V4.84007H1015.05V0.840073ZM893.408 2.84007V141H897.408V2.84007H893.408ZM941.619 103.973V39.8669H937.619V103.973H941.619ZM939.619 41.8669H994.607V37.8669H939.619V41.8669ZM993.192 41.2811L1026.07 74.1632L1028.9 71.3348L996.021 38.4527L993.192 41.2811ZM1025.49 72.749V103.973H1029.49V72.749H1025.49ZM1027.49 101.973H939.619V105.973H1027.49V101.973Z" fill="#E0853B"/>
</svg>
