<svg width="687" height="133" viewBox="0 0 687 133" fill="none" xmlns="http://www.w3.org/2000/svg">
<path d="M0.9 130L47.64 3.26999H89.82L132.38 130H93.43L54.48 8.02L74.62 6.31L36.05 130H0.9ZM29.97 107.77L36.43 81.17H92.1L95.71 107.77H29.97ZM192.024 132.85C185.564 132.85 179.547 132.597 173.974 132.09C168.4 131.71 163.207 130.95 158.394 129.81C153.58 128.67 149.084 127.087 144.904 125.06V89.72C151.617 94.9133 158.71 98.65 166.184 100.93C173.784 103.21 180.37 104.35 185.944 104.35C189.997 104.35 193.29 103.717 195.824 102.45C198.484 101.057 199.814 98.3967 199.814 94.47C199.814 91.9367 198.42 89.91 195.634 88.39C192.847 86.7433 189.047 85.2233 184.234 83.83C179.42 82.4367 173.974 80.7267 167.894 78.7C164.474 77.56 161.117 76.1033 157.824 74.33C154.657 72.5567 151.807 70.34 149.274 67.68C146.74 64.8933 144.714 61.6 143.194 57.8C141.674 53.8733 140.914 49.1867 140.914 43.74C140.914 37.7867 141.99 32.15 144.144 26.83C146.424 21.51 149.717 16.8867 154.024 12.96C158.457 8.90666 164.03 5.74 170.744 3.46C177.457 1.18 185.247 0.0399971 194.114 0.0399971C199.434 0.0399971 204.184 0.356663 208.364 0.989996C212.67 1.49666 216.724 2.38333 220.524 3.65C224.45 4.79 228.314 6.31 232.114 8.20999V44.31C229.327 41.7767 225.97 39.37 222.044 37.09C218.244 34.81 214.254 32.91 210.074 31.39C206.02 29.7433 202.094 28.7933 198.294 28.54C195.38 28.2867 192.467 28.4133 189.554 28.92C186.767 29.4267 184.424 30.5033 182.524 32.15C180.75 33.67 179.864 35.95 179.864 38.99C179.864 41.7767 180.877 43.9933 182.904 45.64C184.93 47.16 187.717 48.49 191.264 49.63C194.937 50.6433 198.99 51.7833 203.424 53.05C208.87 54.57 213.747 56.28 218.054 58.18C222.487 60.08 226.224 62.4233 229.264 65.21C232.43 67.9967 234.837 71.4167 236.484 75.47C238.13 79.3967 238.954 84.1467 238.954 89.72C238.954 98.2067 236.927 105.743 232.874 112.33C228.947 118.79 223.437 123.857 216.344 127.53C209.377 131.077 201.27 132.85 192.024 132.85ZM303.352 132.85C296.892 132.85 290.875 132.597 285.302 132.09C279.728 131.71 274.535 130.95 269.722 129.81C264.908 128.67 260.412 127.087 256.232 125.06V89.72C262.945 94.9133 270.038 98.65 277.512 100.93C285.112 103.21 291.698 104.35 297.272 104.35C301.325 104.35 304.618 103.717 307.152 102.45C309.812 101.057 311.142 98.3967 311.142 94.47C311.142 91.9367 309.748 89.91 306.962 88.39C304.175 86.7433 300.375 85.2233 295.562 83.83C290.748 82.4367 285.302 80.7267 279.222 78.7C275.802 77.56 272.445 76.1033 269.152 74.33C265.985 72.5567 263.135 70.34 260.602 67.68C258.068 64.8933 256.042 61.6 254.522 57.8C253.002 53.8733 252.242 49.1867 252.242 43.74C252.242 37.7867 253.318 32.15 255.472 26.83C257.752 21.51 261.045 16.8867 265.352 12.96C269.785 8.90666 275.358 5.74 282.072 3.46C288.785 1.18 296.575 0.0399971 305.442 0.0399971C310.762 0.0399971 315.512 0.356663 319.692 0.989996C323.998 1.49666 328.052 2.38333 331.852 3.65C335.778 4.79 339.642 6.31 343.442 8.20999V44.31C340.655 41.7767 337.298 39.37 333.372 37.09C329.572 34.81 325.582 32.91 321.402 31.39C317.348 29.7433 313.422 28.7933 309.622 28.54C306.708 28.2867 303.795 28.4133 300.882 28.92C298.095 29.4267 295.752 30.5033 293.852 32.15C292.078 33.67 291.192 35.95 291.192 38.99C291.192 41.7767 292.205 43.9933 294.232 45.64C296.258 47.16 299.045 48.49 302.592 49.63C306.265 50.6433 310.318 51.7833 314.752 53.05C320.198 54.57 325.075 56.28 329.382 58.18C333.815 60.08 337.552 62.4233 340.592 65.21C343.758 67.9967 346.165 71.4167 347.812 75.47C349.458 79.3967 350.282 84.1467 350.282 89.72C350.282 98.2067 348.255 105.743 344.202 112.33C340.275 118.79 334.765 123.857 327.672 127.53C320.705 131.077 312.598 132.85 303.352 132.85ZM369.27 130V3.26999H459.14V31.77H407.46V52.29H451.73V80.79H407.27V101.5H459.14V130H369.27ZM506.955 130V31.77H475.225V3.26999H577.445V31.77H544.955V130H506.955ZM639.934 132.85C633.474 132.85 627.457 132.597 621.884 132.09C616.31 131.71 611.117 130.95 606.304 129.81C601.49 128.67 596.994 127.087 592.814 125.06V89.72C599.527 94.9133 606.62 98.65 614.094 100.93C621.694 103.21 628.28 104.35 633.854 104.35C637.907 104.35 641.2 103.717 643.734 102.45C646.394 101.057 647.724 98.3967 647.724 94.47C647.724 91.9367 646.33 89.91 643.544 88.39C640.757 86.7433 636.957 85.2233 632.144 83.83C627.33 82.4367 621.884 80.7267 615.804 78.7C612.384 77.56 609.027 76.1033 605.734 74.33C602.567 72.5567 599.717 70.34 597.184 67.68C594.65 64.8933 592.624 61.6 591.104 57.8C589.584 53.8733 588.824 49.1867 588.824 43.74C588.824 37.7867 589.9 32.15 592.054 26.83C594.334 21.51 597.627 16.8867 601.934 12.96C606.367 8.90666 611.94 5.74 618.654 3.46C625.367 1.18 633.157 0.0399971 642.024 0.0399971C647.344 0.0399971 652.094 0.356663 656.274 0.989996C660.58 1.49666 664.634 2.38333 668.434 3.65C672.36 4.79 676.224 6.31 680.024 8.20999V44.31C677.237 41.7767 673.88 39.37 669.954 37.09C666.154 34.81 662.164 32.91 657.984 31.39C653.93 29.7433 650.004 28.7933 646.204 28.54C643.29 28.2867 640.377 28.4133 637.464 28.92C634.677 29.4267 632.334 30.5033 630.434 32.15C628.66 33.67 627.774 35.95 627.774 38.99C627.774 41.7767 628.787 43.9933 630.814 45.64C632.84 47.16 635.627 48.49 639.174 49.63C642.847 50.6433 646.9 51.7833 651.334 53.05C656.78 54.57 661.657 56.28 665.964 58.18C670.397 60.08 674.134 62.4233 677.174 65.21C680.34 67.9967 682.747 71.4167 684.394 75.47C686.04 79.3967 686.864 84.1467 686.864 89.72C686.864 98.2067 684.837 105.743 680.784 112.33C676.857 118.79 671.347 123.857 664.254 127.53C657.287 131.077 649.18 132.85 639.934 132.85Z" fill="#E0853B"/>
</svg>
