<svg width="629" height="143" viewBox="0 0 629 143" fill="none" xmlns="http://www.w3.org/2000/svg">
<g clip-path="url(#clip0_610_45)">
<mask id="path-1-outside-1_610_45" maskUnits="userSpaceOnUse" x="2.83447" y="3" width="302" height="137" fill="black">
<rect fill="white" x="2.83447" y="3" width="302" height="137"/>
<path d="M8.18447 135V8.26999H46.5645L88.5545 63.94H68.7945L111.924 8.26999H149.164V135H111.164V35.63L117.054 49.5L77.7245 100.42L37.0645 47.6L44.2845 43.99V135H8.18447ZM214.728 135V81.61L166.278 8.26999H213.208L247.598 69.45L229.168 69.83L259.188 8.26999H295.858L247.408 91.11L252.728 71.73V135H214.728Z"/>
</mask>
<path d="M8.18447 135H3.18447V140H8.18447V135ZM8.18447 8.26999V3.26999H3.18447V8.26999H8.18447ZM46.5645 8.26999L50.5563 5.2591L49.056 3.26999H46.5645V8.26999ZM88.5545 63.94V68.94H98.5886L92.5463 60.9291L88.5545 63.94ZM68.7945 63.94L64.8419 60.8778L58.5957 68.94H68.7945V63.94ZM111.924 8.26999V3.26999H109.473L107.972 5.20776L111.924 8.26999ZM149.164 8.26999H154.164V3.26999H149.164V8.26999ZM149.164 135V140H154.164V135H149.164ZM111.164 135H106.164V140H111.164V135ZM111.164 35.63L115.767 33.6756L106.164 35.63H111.164ZM117.054 49.5L121.012 52.5564L122.801 50.2399L121.657 47.5456L117.054 49.5ZM77.7245 100.42L73.7624 103.47L77.7178 108.608L81.6816 103.476L77.7245 100.42ZM37.0645 47.6L34.8284 43.1279L29.401 45.8416L33.1024 50.6499L37.0645 47.6ZM44.2845 43.99H49.2845V35.8998L42.0484 39.5179L44.2845 43.99ZM44.2845 135V140H49.2845V135H44.2845ZM13.1845 135V8.26999H3.18447V135H13.1845ZM8.18447 13.27H46.5645V3.26999H8.18447V13.27ZM42.5727 11.2809L84.5627 66.9509L92.5463 60.9291L50.5563 5.2591L42.5727 11.2809ZM88.5545 58.94H68.7945V68.94H88.5545V58.94ZM72.747 67.0022L115.877 11.3322L107.972 5.20776L64.8419 60.8778L72.747 67.0022ZM111.924 13.27H149.164V3.26999H111.924V13.27ZM144.164 8.26999V135H154.164V8.26999H144.164ZM149.164 130H111.164V140H149.164V130ZM116.164 135V35.63H106.164V135H116.164ZM106.562 37.5844L112.452 51.4544L121.657 47.5456L115.767 33.6756L106.562 37.5844ZM113.097 46.4436L73.7674 97.3636L81.6816 103.476L121.012 52.5564L113.097 46.4436ZM81.6865 97.3701L41.0265 44.5501L33.1024 50.6499L73.7624 103.47L81.6865 97.3701ZM39.3005 52.0721L46.5205 48.4621L42.0484 39.5179L34.8284 43.1279L39.3005 52.0721ZM39.2845 43.99V135H49.2845V43.99H39.2845ZM44.2845 130H8.18447V140H44.2845V130ZM214.728 135H209.728V140H214.728V135ZM214.728 81.61H219.728V80.1076L218.9 78.854L214.728 81.61ZM166.278 8.26999V3.26999H156.982L162.106 11.026L166.278 8.26999ZM213.208 8.26999L217.566 5.81997L216.133 3.26999H213.208V8.26999ZM247.598 69.45L247.701 74.4489L256.047 74.2769L251.956 67L247.598 69.45ZM229.168 69.83L224.674 67.6384L221.085 74.9977L229.271 74.8289L229.168 69.83ZM259.188 8.26999V3.26999H256.063L254.694 6.07842L259.188 8.26999ZM295.858 8.26999L300.174 10.7943L304.575 3.26999H295.858V8.26999ZM247.408 91.11L242.586 89.7864L251.724 93.6343L247.408 91.11ZM252.728 71.73H257.728L247.906 70.4064L252.728 71.73ZM252.728 135V140H257.728V135H252.728ZM219.728 135V81.61H209.728V135H219.728ZM218.9 78.854L170.45 5.51397L162.106 11.026L210.556 84.366L218.9 78.854ZM166.278 13.27H213.208V3.26999H166.278V13.27ZM208.849 10.72L243.239 71.9L251.956 67L217.566 5.81997L208.849 10.72ZM247.495 64.4511L229.065 64.8311L229.271 74.8289L247.701 74.4489L247.495 64.4511ZM233.662 72.0216L263.682 10.4616L254.694 6.07842L224.674 67.6384L233.662 72.0216ZM259.188 13.27H295.858V3.26999H259.188V13.27ZM291.542 5.74571L243.092 88.5857L251.724 93.6343L300.174 10.7943L291.542 5.74571ZM252.229 92.4336L257.549 73.0536L247.906 70.4064L242.586 89.7864L252.229 92.4336ZM247.728 71.73V135H257.728V71.73H247.728ZM252.728 130H214.728V140H252.728V130Z" fill="black" mask="url(#path-1-outside-1_610_45)"/>
<mask id="path-3-outside-2_610_45" maskUnits="userSpaceOnUse" x="4.83447" y="5" width="297" height="133" fill="black">
<rect fill="white" x="4.83447" y="5" width="297" height="133"/>
<path d="M8.18447 135V8.26999H46.5645L88.5545 63.94H68.7945L111.924 8.26999H149.164V135H111.164V35.63L117.054 49.5L77.7245 100.42L37.0645 47.6L44.2845 43.99V135H8.18447ZM214.728 135V81.61L166.278 8.26999H213.208L247.598 69.45L229.168 69.83L259.188 8.26999H295.858L247.408 91.11L252.728 71.73V135H214.728Z"/>
</mask>
<path d="M8.18447 135H5.18447V138H8.18447V135ZM8.18447 8.26999V5.26999H5.18447V8.26999H8.18447ZM46.5645 8.26999L48.9596 6.46346L48.0594 5.26999H46.5645V8.26999ZM88.5545 63.94V66.94H94.575L90.9496 62.1335L88.5545 63.94ZM68.7945 63.94L66.4229 62.1027L62.6752 66.94H68.7945V63.94ZM111.924 8.26999V5.26999H110.454L109.553 6.43265L111.924 8.26999ZM149.164 8.26999H152.164V5.26999H149.164V8.26999ZM149.164 135V138H152.164V135H149.164ZM111.164 135H108.164V138H111.164V135ZM111.164 35.63L113.926 34.4574L108.164 35.63H111.164ZM117.054 49.5L119.429 51.3338L120.502 49.9439L119.816 48.3274L117.054 49.5ZM77.7245 100.42L75.3472 102.25L77.7205 105.333L80.0987 102.254L77.7245 100.42ZM37.0645 47.6L35.7228 44.9167L32.4664 46.5449L34.6872 49.43L37.0645 47.6ZM44.2845 43.99H47.2845V39.1359L42.9428 41.3067L44.2845 43.99ZM44.2845 135V138H47.2845V135H44.2845ZM11.1845 135V8.26999H5.18447V135H11.1845ZM8.18447 11.27H46.5645V5.26999H8.18447V11.27ZM44.1694 10.0765L86.1594 65.7465L90.9496 62.1335L48.9596 6.46346L44.1694 10.0765ZM88.5545 60.94H68.7945V66.94H88.5545V60.94ZM71.166 65.7773L114.296 10.1073L109.553 6.43265L66.4229 62.1027L71.166 65.7773ZM111.924 11.27H149.164V5.26999H111.924V11.27ZM146.164 8.26999V135H152.164V8.26999H146.164ZM149.164 132H111.164V138H149.164V132ZM114.164 135V35.63H108.164V135H114.164ZM108.403 36.8026L114.293 50.6726L119.816 48.3274L113.926 34.4574L108.403 36.8026ZM114.68 47.6662L75.3502 98.5862L80.0987 102.254L119.429 51.3338L114.68 47.6662ZM80.1017 98.59L39.4417 45.77L34.6872 49.43L75.3472 102.25L80.1017 98.59ZM38.4061 50.2833L45.6261 46.6733L42.9428 41.3067L35.7228 44.9167L38.4061 50.2833ZM41.2845 43.99V135H47.2845V43.99H41.2845ZM44.2845 132H8.18447V138H44.2845V132ZM214.728 135H211.728V138H214.728V135ZM214.728 81.61H217.728V80.7085L217.231 79.9564L214.728 81.61ZM166.278 8.26999V5.26999H160.7L163.775 9.9236L166.278 8.26999ZM213.208 8.26999L215.823 6.79998L214.963 5.26999H213.208V8.26999ZM247.598 69.45L247.66 72.4494L252.667 72.3461L250.213 67.98L247.598 69.45ZM229.168 69.83L226.471 68.5151L224.318 72.9306L229.23 72.8294L229.168 69.83ZM259.188 8.26999V5.26999H257.313L256.491 6.95505L259.188 8.26999ZM295.858 8.26999L298.447 9.78456L301.088 5.26999H295.858V8.26999ZM247.408 91.11L244.515 90.3158L249.997 92.6246L247.408 91.11ZM252.728 71.73H255.728L249.835 70.9358L252.728 71.73ZM252.728 135V138H255.728V135H252.728ZM217.728 135V81.61H211.728V135H217.728ZM217.231 79.9564L168.781 6.61638L163.775 9.9236L212.225 83.2636L217.231 79.9564ZM166.278 11.27H213.208V5.26999H166.278V11.27ZM210.593 9.74L244.983 70.92L250.213 67.98L215.823 6.79998L210.593 9.74ZM247.536 66.4506L229.106 66.8306L229.23 72.8294L247.66 72.4494L247.536 66.4506ZM231.864 71.1449L261.884 9.58493L256.491 6.95505L226.471 68.5151L231.864 71.1449ZM259.188 11.27H295.858V5.26999H259.188V11.27ZM293.268 6.75542L244.818 89.5954L249.997 92.6246L298.447 9.78456L293.268 6.75542ZM250.301 91.9041L255.621 72.5242L249.835 70.9358L244.515 90.3158L250.301 91.9041ZM249.728 71.73V135H255.728V71.73H249.728ZM252.728 132H214.728V138H252.728V132Z" fill="#E0853B" mask="url(#path-3-outside-2_610_45)"/>
</g>
<defs>
<clipPath id="clip0_610_45">
<rect width="629" height="143" fill="white"/>
</clipPath>
</defs>
</svg>
